<?xml version="1.0" encoding="UTF-8"?>
<svg id="_256x256" data-name="256x256" xmlns="http://www.w3.org/2000/svg" viewBox="0 0 256 256">
  <defs>
    <style>
      .cls-1 {
        fill: #303030;
      }

      .cls-2 {
        fill: #f78f21;
      }

      .cls-3 {
        fill: #221f1f;
      }
    </style>
  </defs>
  <g>
    <polygon class="cls-2" points="143.58 60.91 128.26 87.19 112.94 60.91 128.26 34.63 143.58 60.91"/>
    <polygon class="cls-3" points="128.26 87.19 115.56 108.97 100.25 135.25 85.04 161.35 65.59 194.72 50.12 221.25 19.42 221.37 34.88 194.84 69.72 135.07 84.93 108.97 100.25 82.69 112.94 60.91 128.26 87.19"/>
    <polygon class="cls-3" points="180.69 220.71 150.13 220.84 119.78 220.96 106.72 221.02 76.01 221.14 91.47 194.61 91.47 194.61 97.95 183.5 104.39 194.56 122.18 194.48 134.74 194.43 128.48 183.68 113.16 157.4 128.48 131.12 143.79 157.4 165.3 194.31 180.69 220.71"/>
    <polygon class="cls-2" points="236.59 220.48 206.02 220.61 190.63 194.2 156.49 135.62 141.17 109.34 156.49 83.06 171.8 109.34 221.2 194.08 236.59 220.48"/>
  </g>
  <path class="cls-3" d="m201.32,228.84l-1.43-2.44c-20.16,14.79-45.03,23.52-71.89,23.52-12.76,0-25.04-1.97-36.61-5.62-.47-.14-.94-.3-1.42-.45-.11.41-.6.66-1.02.42-.15-.09-.28-.25-.33-.42l-.13-.5c-.44-.14-.88-.3-1.33-.46l.47,1.74c.05.17.16.33.33.42-.16-.09-.35-.12-.52-.07l-2.02.55c1.91.71,3.85,1.36,5.8,1.96,11.64,3.58,23.98,5.52,36.77,5.52,27.57,0,53.08-8.98,73.78-24.16h-.46Zm-124.11,9.97c.06.09.14.16.24.23-.15-.09-.35-.11-.52-.06l-4.14,1.14c1.69.84,3.42,1.65,5.17,2.41l2.19-.6c.41-.11.88-.77,1.09-1.36-1.36-.55-2.69-1.14-4.02-1.77Zm-11.04-5.77l-4.07,1.12c1.45.91,2.93,1.79,4.42,2.63l3.77-1.42c-1.39-.75-2.76-1.53-4.12-2.33ZM128,3C59.07,3,3,59.07,3,128c0,12.79,1.93,25.14,5.52,36.78,3.07,9.92,7.33,19.32,12.64,28.03.17-.13.3-.33.33-.59l.51-4.06c-4.75-8.3-8.53-17.2-11.22-26.58-3.07-10.67-4.7-21.94-4.7-33.59C6.08,60.78,60.78,6.08,128,6.08s121.92,54.69,121.92,121.92c0,24.24-7.11,46.84-19.35,65.84l1.74,2.98c13.08-19.75,20.7-43.42,20.7-68.82C253,59.07,196.93,3,128,3Z"/>
  <g>
    <path class="cls-1" d="m91.82,245.87l-.43-1.57-2.3-8.4-3.09-1.77c-.53-.31-1.18.2-1.02.79l2.19,7.96.47,1.74c.05.17.16.33.33.42-.16-.09-.35-.12-.52-.07l-2.02.55-7.68,2.11c-.6.16-.69.97-.15,1.27l2.85,1.62c.16.09.35.11.52.06l9.7-2.66c.18-.05.39-.22.58-.44.4-.47.71-1.2.6-1.61Zm-4.98-8.57c-.16-.6.47-1.09,1.02-.78l.25.14,1.87,6.81c.04.13.03.26,0,.37-.11.41-.6.66-1.02.42-.15-.09-.28-.25-.33-.42l-.13-.5-1.65-6.04Z"/>
    <path class="cls-1" d="m81.31,239.87l-2.73-9.97-3.1-1.76c-.53-.31-1.17.18-1.01.78l2.66,9.7c.02.07.04.13.08.2.06.09.14.16.24.23-.15-.09-.35-.11-.52-.06l-4.14,1.14-5.56,1.52c-.6.15-.7.97-.16,1.26l2.85,1.62c.16.09.35.11.53.07l7.51-2.06,2.19-.6c.41-.11.88-.77,1.09-1.36.09-.27.13-.52.08-.71Zm-4.99-8.56c-.15-.6.48-1.1,1.02-.79l.25.14,1.87,6.82c.16.6-.47,1.09-1.01.78-.16-.09-.28-.24-.33-.42l-1.8-6.53Z"/>
    <path class="cls-1" d="m70.78,233.89l-2.73-9.97-3.09-1.77c-.53-.31-1.18.2-1.02.79l2.66,9.7c.05.17.16.33.33.42-.16-.09-.35-.12-.52-.07l-.24.06-4.07,1.12-5.4,1.48c-.6.16-.69.97-.15,1.27l2.85,1.62c.16.09.35.11.52.06l6.6-1.81,3.77-1.42c.35-.47.6-1.12.49-1.49Zm-1.85-2.39l-1.87-6.81-.25-.14c-.54-.31-1.18.18-1.02.78l1.79,6.54c.05.17.17.33.33.42.54.31,1.18-.2,1.02-.79Z"/>
  </g>
  <path class="cls-1" d="m25.05,172.55l-.56,19.79-.11,4.09c0,.26-.11.46-.27.62-.31.3-.83.36-1.2.05l-18.21-15.47c-.3-.26-.4-.67-.25-1.04l4.3-10.18,1.2-2.85c.13-.31.42-.52.74-.55.12-.01.25,0,.38.05l13.37,4.64c.37.13.62.48.6.87Z"/>
</svg>